<svg width="87" height="87" viewBox="0 0 87 87" fill="none" xmlns="http://www.w3.org/2000/svg">
<path d="M12.0645 25.0705L43.5107 43.261L74.9569 25.0705M43.5107 79.534V43.225M75.9294 57.6333V28.8167C75.9281 27.5533 75.5947 26.3125 74.9624 25.2188C74.3302 24.125 73.4214 23.2167 72.3274 22.5851L47.1128 8.17672C46.0176 7.54443 44.7753 7.21155 43.5107 7.21155C42.2461 7.21155 41.0038 7.54443 39.9086 8.17672L14.694 22.5851C13.5999 23.2167 12.6912 24.125 12.059 25.2188C11.4267 26.3125 11.0932 27.5533 11.0919 28.8167V57.6333C11.0932 58.8967 11.4267 60.1375 12.059 61.2312C12.6912 62.325 13.5999 63.2333 14.694 63.8649L39.9086 78.2733C41.0038 78.9056 42.2461 79.2384 43.5107 79.2384C44.7753 79.2384 46.0176 78.9056 47.1128 78.2733L72.3274 63.8649C73.4214 63.2333 74.3302 62.325 74.9624 61.2312C75.5947 60.1375 75.9281 58.8967 75.9294 57.6333Z" stroke="#645555" stroke-width="4" stroke-linecap="round" stroke-linejoin="round"/>
</svg>
