<svg width="53" height="51" viewBox="0 0 53 51" fill="none" xmlns="http://www.w3.org/2000/svg">
<path d="M38.2438 13.8125H38.2656M15.2975 4.25H37.1511C43.1858 4.25 48.0779 9.00697 48.0779 14.875V36.125C48.0779 41.993 43.1858 46.75 37.1511 46.75H15.2975C9.26282 46.75 4.37073 41.993 4.37073 36.125V14.875C4.37073 9.00697 9.26282 4.25 15.2975 4.25ZM34.9657 24.1612C35.2354 25.9298 34.9248 27.736 34.078 29.3229C33.2311 30.9099 31.8913 32.1968 30.2489 33.0006C28.6066 33.8044 26.7454 34.0841 24.9301 33.8001C23.1148 33.5161 21.4379 32.6827 20.1377 31.4185C18.8376 30.1543 17.9806 28.5236 17.6884 26.7585C17.3963 24.9933 17.6841 23.1835 18.5107 21.5865C19.3373 19.9896 20.6608 18.6867 22.2928 17.8633C23.9248 17.0398 25.7823 16.7378 27.6011 17C29.4563 17.2675 31.1738 18.1081 32.5 19.3977C33.8262 20.6872 34.6906 22.3573 34.9657 24.1612Z" stroke="#645555" stroke-width="4" stroke-linecap="round" stroke-linejoin="round"/>
</svg>
